<svg width="20" height="20" viewBox="0 0 20 20" fill="none" xmlns="http://www.w3.org/2000/svg">
<path d="M11.2002 15.9999H14.4002V19.1999H11.2002V15.9999ZM16.8002 15.9999H20.0002V19.1999H16.8002V15.9999ZM11.2002 10.3999H14.4002V13.5999H11.2002V10.3999ZM16.8002 10.3999H20.0002V13.5999H16.8002V10.3999Z" fill="#1858A8"/>
<path d="M20 5.6H15.2V2.4C15.2 1.04 14.16 0 12.8 0H8C6.64 0 5.6 1.04 5.6 2.4V5.6H0.8C0.32 5.6 0 5.92 0 6.4V6.56L1.52 16.24C1.6 17.04 2.32 17.6 3.12 17.6H9.6V16H3.12L1.76 7.2H20V5.6ZM7.2 2.4C7.2 1.92 7.52 1.6 8 1.6H12.8C13.28 1.6 13.6 1.92 13.6 2.4V5.6H7.2V2.4Z" fill="#1858A8"/>
</svg>
