<svg width="13" height="13" viewBox="0 0 13 13" fill="none" xmlns="http://www.w3.org/2000/svg">
<path d="M8.8871 5.06546L6.2871 3.52713C6.22032 3.48756 6.1441 3.46672 6.06648 3.4668C5.98885 3.46687 5.91268 3.48786 5.84597 3.52756L3.24597 5.06589C3.18114 5.10413 3.12742 5.15862 3.0901 5.22397C3.05279 5.28933 3.03317 5.3633 3.0332 5.43856V8.42856C3.0332 8.58196 3.11424 8.72366 3.24597 8.80123L5.84597 10.3396C5.91259 10.3796 5.98883 10.4007 6.06654 10.4007C6.14424 10.4007 6.22048 10.3796 6.2871 10.3396L8.8871 8.80123C8.95193 8.76299 9.00565 8.7085 9.04297 8.64314C9.08029 8.57779 9.0999 8.50382 9.09987 8.42856V5.43856C9.09989 5.36324 9.08027 5.28922 9.04296 5.22379C9.00565 5.15837 8.95193 5.1038 8.8871 5.06546ZM8.2332 8.18156L6.06654 9.46336L3.89987 8.18156V5.68556L6.06654 4.40376L8.2332 5.68556V8.18156Z" fill="#262626"/>
<path d="M1.73333 8.31307V4.36367L4.42 2.77593L3.9793 2.02973L1.07943 3.74357C1.0146 3.7819 0.960884 3.83648 0.923573 3.9019C0.886262 3.96733 0.866649 4.04135 0.866667 4.11667V8.31307C0.613933 8.40215 0.394958 8.56726 0.239789 8.78574C0.0846196 9.00422 0.000858906 9.26536 0 9.53333C0 10.2501 0.583267 10.8333 1.3 10.8333C2.01673 10.8333 2.6 10.2501 2.6 9.53333C2.59914 9.26536 2.51538 9.00422 2.36021 8.78574C2.20504 8.56726 1.98607 8.40215 1.73333 8.31307ZM1.3 9.96667C1.18843 9.96168 1.08308 9.91384 1.00589 9.83312C0.928697 9.7524 0.885617 9.64502 0.885617 9.53333C0.885617 9.42165 0.928697 9.31427 1.00589 9.23355C1.08308 9.15283 1.18843 9.10499 1.3 9.1C1.41157 9.10499 1.51692 9.15283 1.59411 9.23355C1.6713 9.31427 1.71438 9.42165 1.71438 9.53333C1.71438 9.64502 1.6713 9.7524 1.59411 9.83312C1.51692 9.91384 1.41157 9.96168 1.3 9.96667ZM10.8333 8.23333C10.1166 8.23333 9.53333 8.8166 9.53333 9.53333C9.53333 9.6863 9.56453 9.83103 9.6135 9.96753L6.06667 12.0631L3.2916 10.4234L2.8509 11.1696L5.8461 12.9393C5.91281 12.979 5.98898 13 6.06661 13.0001C6.14423 13.0002 6.22045 12.9793 6.28723 12.9398L10.1699 10.6453C10.3649 10.7618 10.5902 10.8333 10.8333 10.8333C11.5501 10.8333 12.1333 10.2501 12.1333 9.53333C12.1333 8.8166 11.5501 8.23333 10.8333 8.23333ZM10.8333 9.96667C10.7218 9.96168 10.6164 9.91384 10.5392 9.83312C10.462 9.7524 10.419 9.64502 10.419 9.53333C10.419 9.42165 10.462 9.31427 10.5392 9.23355C10.6164 9.15283 10.7218 9.10499 10.8333 9.1C10.9449 9.10499 11.0503 9.15283 11.1274 9.23355C11.2046 9.31427 11.2477 9.42165 11.2477 9.53333C11.2477 9.64502 11.2046 9.7524 11.1274 9.83312C11.0503 9.91384 10.9449 9.96168 10.8333 9.96667ZM6.06667 2.6C6.38343 2.6 6.66987 2.4817 6.89563 2.2932L10.4 4.3641V7.36667H11.2667V4.11667C11.2667 4.04135 11.2471 3.96733 11.2098 3.9019C11.1725 3.83648 11.1187 3.7819 11.0539 3.74357L7.34153 1.55003C7.35713 1.469 7.36667 1.3858 7.36667 1.3C7.36667 0.583267 6.7834 0 6.06667 0C5.34993 0 4.76667 0.583267 4.76667 1.3C4.76667 2.01673 5.34993 2.6 6.06667 2.6ZM6.06667 0.866667C6.15249 0.866581 6.23642 0.891959 6.30782 0.939589C6.37922 0.987219 6.43488 1.05496 6.46776 1.13424C6.50065 1.21352 6.50928 1.30077 6.49255 1.38495C6.47583 1.46913 6.43451 1.54646 6.37382 1.60715C6.31313 1.66784 6.2358 1.70916 6.15162 1.72589C6.06743 1.74261 5.98018 1.73398 5.9009 1.7011C5.82163 1.66821 5.75389 1.61255 5.70626 1.54115C5.65863 1.46975 5.63325 1.38583 5.63333 1.3C5.63333 1.0608 5.8279 0.866667 6.06667 0.866667Z" fill="#262626"/>
</svg>
