<svg width="13" height="16" viewBox="0 0 13 16" fill="none" xmlns="http://www.w3.org/2000/svg">
<path d="M6.5 8.15287C6.94688 8.15287 7.32956 7.99307 7.64806 7.67348C7.96602 7.35443 8.125 6.9707 8.125 6.52229C8.125 6.07389 7.96602 5.68989 7.64806 5.37029C7.32956 5.05124 6.94688 4.89172 6.5 4.89172C6.05312 4.89172 5.67071 5.05124 5.35275 5.37029C5.03425 5.68989 4.875 6.07389 4.875 6.52229C4.875 6.9707 5.03425 7.35443 5.35275 7.67348C5.67071 7.99307 6.05312 8.15287 6.5 8.15287ZM6.5 14.1452C8.15208 12.6234 9.3776 11.2406 10.1766 9.99704C10.9755 8.754 11.375 7.65011 11.375 6.68535C11.375 5.20425 10.9043 3.99137 9.96287 3.04673C9.022 2.10262 7.86771 1.63057 6.5 1.63057C5.13229 1.63057 3.97773 2.10262 3.03631 3.04673C2.09544 3.99137 1.625 5.20425 1.625 6.68535C1.625 7.65011 2.02448 8.754 2.82344 9.99704C3.6224 11.2406 4.84792 12.6234 6.5 14.1452ZM6.5 16C6.39167 16 6.28333 15.9796 6.175 15.9389C6.06667 15.8981 5.97188 15.8437 5.89062 15.7758C3.91354 14.0229 2.4375 12.3959 1.4625 10.8947C0.4875 9.39292 0 7.98981 0 6.68535C0 4.64713 0.653521 3.02335 1.96056 1.81401C3.26706 0.604671 4.78021 0 6.5 0C8.21979 0 9.73294 0.604671 11.0394 1.81401C12.3465 3.02335 13 4.64713 13 6.68535C13 7.98981 12.5125 9.39292 11.5375 10.8947C10.5625 12.3959 9.08646 14.0229 7.10938 15.7758C7.02812 15.8437 6.93333 15.8981 6.825 15.9389C6.71667 15.9796 6.60833 16 6.5 16Z" fill="#1E4E9D"/>
</svg>
