<svg width="20" height="14" viewBox="0 0 20 14" fill="none" xmlns="http://www.w3.org/2000/svg">
<path d="M2.14286 1.4H17.8571V0H2.14286V1.4ZM18.5714 2.1V11.9H20V2.1H18.5714ZM17.8571 12.6H2.14286V14H17.8571V12.6ZM1.42857 11.9V2.1H0V11.9H1.42857ZM2.14286 12.6C1.95342 12.6 1.77174 12.5263 1.63778 12.395C1.50383 12.2637 1.42857 12.0857 1.42857 11.9H0C0 12.457 0.225765 12.9911 0.627628 13.3849C1.02949 13.7788 1.57454 14 2.14286 14V12.6ZM18.5714 11.9C18.5714 12.0857 18.4962 12.2637 18.3622 12.395C18.2283 12.5263 18.0466 12.6 17.8571 12.6V14C18.4255 14 18.9705 13.7788 19.3724 13.3849C19.7742 12.9911 20 12.457 20 11.9H18.5714ZM17.8571 1.4C18.0466 1.4 18.2283 1.47375 18.3622 1.60503C18.4962 1.7363 18.5714 1.91435 18.5714 2.1H20C20 1.54305 19.7742 1.0089 19.3724 0.615076C18.9705 0.221249 18.4255 0 17.8571 0V1.4ZM2.14286 0C1.57454 0 1.02949 0.221249 0.627628 0.615076C0.225765 1.0089 0 1.54305 0 2.1H1.42857C1.42857 1.91435 1.50383 1.7363 1.63778 1.60503C1.77174 1.47375 1.95342 1.4 2.14286 1.4V0ZM0.307143 2.6754L8.78 8.4238L9.59357 7.273L1.12071 1.5246L0.307143 2.6754ZM11.22 8.4238L19.6921 2.6754L18.8793 1.5246L10.4064 7.273L11.22 8.4238ZM8.78 8.4238C9.13842 8.66705 9.56402 8.79738 10 8.79738C10.436 8.79738 10.8616 8.66705 11.22 8.4238L10.4064 7.273C10.287 7.35398 10.1452 7.39736 10 7.39736C9.85477 7.39736 9.713 7.35398 9.59357 7.273L8.78 8.4238Z" fill="#1E4E9D"/>
</svg>
