<svg width="20" height="18" viewBox="0 0 20 18" fill="none" xmlns="http://www.w3.org/2000/svg">
<path d="M4.05557 5.07224L5.62895 4.60591C5.75293 4.56921 5.88317 4.5565 6.01223 4.56853C6.14128 4.58055 6.26663 4.61706 6.38111 4.67598C6.49559 4.7349 6.59696 4.81507 6.67944 4.91192C6.76191 5.00876 6.82388 5.12039 6.86179 5.24042C6.89971 5.36045 6.91283 5.48653 6.90041 5.61147C6.88799 5.73641 6.85028 5.85776 6.78942 5.96859C6.72856 6.07941 6.64574 6.17755 6.54571 6.2574C6.44567 6.33724 6.33037 6.39723 6.20638 6.43393L2.43087 7.55196C2.30682 7.58868 2.17651 7.60136 2.0474 7.58929C1.91828 7.57722 1.79289 7.54063 1.67839 7.48161C1.56389 7.42259 1.46254 7.34231 1.38011 7.24534C1.29768 7.14838 1.23581 7.03663 1.19802 6.9165L0.0431586 3.26142C0.00524392 3.14139 -0.00787902 3.0153 0.00453912 2.89036C0.0169573 2.76542 0.0546732 2.64408 0.115534 2.53325C0.176394 2.42242 0.259207 2.32428 0.359244 2.24444C0.459282 2.16459 0.574584 2.1046 0.698569 2.0679C0.948967 1.99377 1.21953 2.01897 1.45073 2.13796C1.68193 2.25696 1.85484 2.45999 1.93141 2.7024L2.36572 4.07939C4.74257 0.535151 9.45777 -0.988995 13.6439 0.671799C14.8958 1.16857 16.02 1.92489 16.9375 2.88755C17.855 3.85022 18.5434 4.99583 18.9543 6.24377C18.9964 6.36399 19.0134 6.49113 19.0042 6.61776C18.995 6.74439 18.9598 6.86798 18.9008 6.98131C18.8417 7.09463 18.7599 7.19543 18.6601 7.27781C18.5603 7.36018 18.4446 7.42249 18.3197 7.46109C18.1948 7.49968 18.0631 7.5138 17.9325 7.50261C17.8019 7.49141 17.6749 7.45514 17.5589 7.3959C17.443 7.33666 17.3403 7.25564 17.2571 7.15758C17.1738 7.05952 17.1116 6.94638 17.0739 6.82477C16.6569 5.55707 15.8781 4.4294 14.8273 3.57198C13.7765 2.71455 12.4966 2.16233 11.1355 1.97908C9.77429 1.79582 8.38735 1.98901 7.13476 2.53633C5.88218 3.08366 4.81405 3.96279 4.05557 5.07224ZM16.2231 12.9032L14.4711 13.3265C14.3442 13.3602 14.2117 13.369 14.0812 13.3524C13.9508 13.3358 13.8251 13.2941 13.7116 13.2298C13.5981 13.1655 13.4989 13.0798 13.4201 12.9779C13.3412 12.876 13.2842 12.7598 13.2523 12.6363C13.2205 12.5127 13.2145 12.3842 13.2346 12.2584C13.2548 12.1325 13.3008 12.0119 13.3698 11.9035C13.4388 11.7951 13.5296 11.7011 13.6366 11.6271C13.7437 11.5532 13.865 11.5007 13.9933 11.4727L17.5892 10.6041C17.7766 10.5178 17.9873 10.491 18.1913 10.5276C18.3879 10.5527 18.5721 10.6344 18.72 10.7622C18.8679 10.8901 18.9726 11.0581 19.0204 11.2443L19.9759 14.952C20.0325 15.1955 19.9885 15.4508 19.8531 15.6632C19.7178 15.8757 19.502 16.0285 19.2519 16.0889C19.0017 16.1493 18.7371 16.1126 18.5145 15.9865C18.292 15.8605 18.1292 15.6552 18.061 15.4145L17.7353 14.1512C16.7849 15.4752 15.4833 16.5266 13.9675 17.1945C12.4517 17.8625 10.7779 18.1223 9.12233 17.9466C7.46681 17.7709 5.89088 17.1662 4.56056 16.1962C3.23024 15.2262 2.19477 13.9269 1.56324 12.435L1.3066 11.8291C1.25747 11.713 1.23246 11.5886 1.23298 11.4631C1.2335 11.3376 1.25955 11.2134 1.30964 11.0977C1.35973 10.9819 1.43288 10.8769 1.52491 10.7885C1.61695 10.7001 1.72606 10.6301 1.84603 10.5826C2.08831 10.4865 2.36009 10.4876 2.60156 10.5855C2.72113 10.634 2.82966 10.7048 2.92096 10.7939C3.01225 10.883 3.08453 10.9887 3.13365 11.1048L3.39029 11.7097C3.89345 12.8982 4.72233 13.9312 5.78749 14.6972C6.85264 15.4631 8.11364 15.9328 9.43438 16.0558C10.7551 16.1787 12.0855 15.9501 13.2819 15.3947C14.4782 14.8393 15.4952 13.9772 16.2231 12.9032Z" fill="#1858A8"/>
</svg>
