<svg width="19" height="23" viewBox="0 0 19 23" fill="none" xmlns="http://www.w3.org/2000/svg">
<path d="M8.4375 22.25C9.61111 22.25 10.5625 21.2986 10.5625 20.125C10.5625 18.9514 9.61111 18 8.4375 18C7.26389 18 6.3125 18.9514 6.3125 20.125C6.3125 21.2986 7.26389 22.25 8.4375 22.25Z" stroke="#1E4E9D" stroke-width="1.5"/>
<path d="M10.5625 5.25C11.7361 5.25 12.6875 4.29861 12.6875 3.125C12.6875 1.95139 11.7361 1 10.5625 1C9.38889 1 8.4375 1.95139 8.4375 3.125C8.4375 4.29861 9.38889 5.25 10.5625 5.25Z" stroke="#1E4E9D" stroke-width="1.5"/>
<path d="M15.875 13.75C17.0486 13.75 18 12.7986 18 11.625C18 10.4514 17.0486 9.5 15.875 9.5C14.7014 9.5 13.75 10.4514 13.75 11.625C13.75 12.7986 14.7014 13.75 15.875 13.75Z" stroke="#1E4E9D" stroke-width="1.5"/>
<path d="M3.125 13.75C4.29861 13.75 5.25 12.7986 5.25 11.625C5.25 10.4514 4.29861 9.5 3.125 9.5C1.95139 9.5 1 10.4514 1 11.625C1 12.7986 1.95139 13.75 3.125 13.75Z" stroke="#1E4E9D" stroke-width="1.5"/>
<path d="M13.75 11.625H5.25M8.96875 4.71875L4.71875 10.0312" stroke="#1E4E9D" stroke-width="1.5" stroke-linecap="round" stroke-linejoin="round"/>
<path d="M14.2813 13.2188L10.0308 18.5312" stroke="#1E4E9D" stroke-width="1.5"/>
</svg>
