<svg width="17" height="17" viewBox="0 0 17 17" fill="none" xmlns="http://www.w3.org/2000/svg">
<path d="M12.2584 17C5.49927 17 0 11.5007 0 4.74157C0.00255584 3.58218 0.426043 2.46316 1.19173 1.59256C1.95741 0.721972 3.01318 0.159048 4.16276 0.00845302C4.45581 -0.0240395 4.75159 0.0376595 5.00721 0.184603C5.26283 0.331546 5.465 0.556093 5.5844 0.825682L7.29547 4.81818C7.38422 5.02542 7.41981 5.25154 7.399 5.47603C7.37819 5.70051 7.30163 5.91623 7.17629 6.10362L5.76316 8.26587C6.40306 9.56449 7.45742 10.6129 8.75967 11.2453L10.8964 9.82371C11.0836 9.69753 11.2998 9.62115 11.5248 9.60178C11.7497 9.58242 11.9758 9.62071 12.1818 9.71304L16.1743 11.4156C16.4439 11.535 16.6685 11.7372 16.8154 11.9928C16.9623 12.2484 17.024 12.5442 16.9915 12.8372C16.841 13.9868 16.278 15.0426 15.4074 15.8083C14.5368 16.574 13.4178 16.9974 12.2584 17ZM4.33301 1.36199C3.51149 1.46759 2.75662 1.86902 2.20975 2.49111C1.66288 3.11319 1.3615 3.91328 1.36205 4.74157C1.3643 7.63078 2.51303 10.401 4.55601 12.444C6.59899 14.487 9.36922 15.6357 12.2584 15.638C13.0867 15.6385 13.8868 15.3371 14.5089 14.7903C15.131 14.2434 15.5324 13.4885 15.638 12.667L11.6455 10.9644L9.51731 12.3861C9.32149 12.5155 9.09553 12.5922 8.86136 12.6086C8.62719 12.625 8.39276 12.5806 8.1808 12.4797C6.59482 11.7125 5.31193 10.4356 4.53732 8.85325C4.43519 8.64201 4.38936 8.40797 4.40428 8.17381C4.41919 7.93965 4.49435 7.71332 4.62245 7.51674L6.04409 5.35449L4.33301 1.36199Z" fill="#1E4E9D"/>
</svg>
