<svg width="28" height="22" viewBox="0 0 28 22" fill="none" xmlns="http://www.w3.org/2000/svg">
<path d="M5.25 0.846154C5.25 0.62174 5.34219 0.406518 5.50628 0.247833C5.67038 0.0891483 5.89294 0 6.125 0H11.375C11.6071 0 11.8296 0.0891483 11.9937 0.247833C12.1578 0.406518 12.25 0.62174 12.25 0.846154V5.92308C12.25 6.14749 12.1578 6.36271 11.9937 6.5214C11.8296 6.68008 11.6071 6.76923 11.375 6.76923H6.125C5.89294 6.76923 5.67038 6.68008 5.50628 6.5214C5.34219 6.36271 5.25 6.14749 5.25 5.92308V0.846154ZM16.625 0C16.3929 0 16.1704 0.0891483 16.0063 0.247833C15.8422 0.406518 15.75 0.62174 15.75 0.846154V5.92308C15.75 6.14749 15.8422 6.36271 16.0063 6.5214C16.1704 6.68008 16.3929 6.76923 16.625 6.76923H21.875C22.1071 6.76923 22.3296 6.68008 22.4937 6.5214C22.6578 6.36271 22.75 6.14749 22.75 5.92308V0.846154C22.75 0.62174 22.6578 0.406518 22.4937 0.247833C22.3296 0.0891483 22.1071 0 21.875 0H16.625ZM17.5 5.07692V1.69231H21V5.07692H17.5ZM7 16.9231C7.46413 16.9231 7.90925 16.7448 8.23744 16.4274C8.56563 16.11 8.75 15.6796 8.75 15.2308C8.75 14.7819 8.56563 14.3515 8.23744 14.0341C7.90925 13.7168 7.46413 13.5385 7 13.5385C6.53587 13.5385 6.09075 13.7168 5.76256 14.0341C5.43437 14.3515 5.25 14.7819 5.25 15.2308C5.25 15.6796 5.43437 16.11 5.76256 16.4274C6.09075 16.7448 6.53587 16.9231 7 16.9231ZM15.75 15.2308C15.75 15.6796 15.5656 16.11 15.2374 16.4274C14.9092 16.7448 14.4641 16.9231 14 16.9231C13.5359 16.9231 13.0908 16.7448 12.7626 16.4274C12.4344 16.11 12.25 15.6796 12.25 15.2308C12.25 14.7819 12.4344 14.3515 12.7626 14.0341C13.0908 13.7168 13.5359 13.5385 14 13.5385C14.4641 13.5385 14.9092 13.7168 15.2374 14.0341C15.5656 14.3515 15.75 14.7819 15.75 15.2308ZM21 16.9231C21.4641 16.9231 21.9092 16.7448 22.2374 16.4274C22.5656 16.11 22.75 15.6796 22.75 15.2308C22.75 14.7819 22.5656 14.3515 22.2374 14.0341C21.9092 13.7168 21.4641 13.5385 21 13.5385C20.5359 13.5385 20.0908 13.7168 19.7626 14.0341C19.4344 14.3515 19.25 14.7819 19.25 15.2308C19.25 15.6796 19.4344 16.11 19.7626 16.4274C20.0908 16.7448 20.5359 16.9231 21 16.9231ZM0 15.2308C0 13.4355 0.737498 11.7137 2.05025 10.4442C3.36301 9.17472 5.14348 8.46154 7 8.46154H21C22.8565 8.46154 24.637 9.17472 25.9497 10.4442C27.2625 11.7137 28 13.4355 28 15.2308C28 17.0261 27.2625 18.7479 25.9497 20.0173C24.637 21.2868 22.8565 22 21 22H7C5.14348 22 3.36301 21.2868 2.05025 20.0173C0.737498 18.7479 0 17.0261 0 15.2308ZM7 10.1538C5.60761 10.1538 4.27226 10.6887 3.28769 11.6408C2.30312 12.5929 1.75 13.8843 1.75 15.2308C1.75 16.5773 2.30312 17.8686 3.28769 18.8207C4.27226 19.7728 5.60761 20.3077 7 20.3077H21C22.3924 20.3077 23.7277 19.7728 24.7123 18.8207C25.6969 17.8686 26.25 16.5773 26.25 15.2308C26.25 13.8843 25.6969 12.5929 24.7123 11.6408C23.7277 10.6887 22.3924 10.1538 21 10.1538H7Z" fill="#1E4E9D"/>
</svg>
