<svg width="23" height="23" viewBox="0 0 23 23" fill="none" xmlns="http://www.w3.org/2000/svg">
<path d="M22.8698 6.21503C22.8036 6.1184 22.7157 6.03953 22.6135 5.98507C22.5114 5.9306 22.398 5.90213 22.2829 5.90206H6.95212L5.79163 1.7928C5.33654 0.174681 4.25513 0 3.8116 0H0.717334C0.320731 0 0 0.329705 0 0.736552C0 1.1434 0.321093 1.47308 0.717311 1.47308H3.81121C3.90909 1.47308 4.20779 1.47308 4.41152 2.19591L8.40369 17.2611C8.49038 17.5789 8.77246 17.7985 9.09425 17.7985H18.8455C19.1482 17.7985 19.4183 17.6038 19.5206 17.3111L22.9576 6.88779C23.0367 6.66193 23.0038 6.41048 22.8698 6.21503H22.8698ZM18.3407 16.3258H9.63871L7.35531 7.37553H21.2631L18.3407 16.3258ZM16.918 19.2913C15.9204 19.2913 15.1121 20.1213 15.1121 21.1456C15.1121 22.17 15.9204 23 16.918 23C17.9156 23 18.7239 22.17 18.7239 21.1456C18.7239 20.1213 17.9156 19.2913 16.918 19.2913ZM10.4167 19.2913C9.41911 19.2913 8.61078 20.1213 8.61078 21.1456C8.61078 22.17 9.41911 23 10.4167 23C11.4143 23 12.2226 22.17 12.2226 21.1456C12.2226 20.1213 11.4143 19.2913 10.4167 19.2913Z" fill="#1E4E9D"/>
</svg>
