<svg width="25" height="22" viewBox="0 0 25 22" fill="none" xmlns="http://www.w3.org/2000/svg">
<path d="M20.4999 0H7.05545C5.03389 0 3.38878 1.64511 3.38878 3.66667V4.88889H2.16656C1.8424 4.88889 1.53153 5.01766 1.30232 5.24687C1.07311 5.47608 0.944336 5.78696 0.944336 6.11111C0.944336 6.43526 1.07311 6.74614 1.30232 6.97535C1.53153 7.20456 1.8424 7.33333 2.16656 7.33333H3.38878V9.77778H2.16656C1.8424 9.77778 1.53153 9.90655 1.30232 10.1358C1.07311 10.365 0.944336 10.6758 0.944336 11C0.944336 11.3242 1.07311 11.635 1.30232 11.8642C1.53153 12.0935 1.8424 12.2222 2.16656 12.2222H3.38878V14.6667H2.16656C1.8424 14.6667 1.53153 14.7954 1.30232 15.0246C1.07311 15.2539 0.944336 15.5647 0.944336 15.8889C0.944336 16.213 1.07311 16.5239 1.30232 16.7531C1.53153 16.9823 1.8424 17.1111 2.16656 17.1111H3.38878V18.3333C3.38878 20.3549 5.03389 22 7.05545 22H20.4999C22.5214 22 24.1666 20.3549 24.1666 18.3333V3.66667C24.1666 1.64511 22.5214 0 20.4999 0ZM5.83322 3.66667C5.83322 2.99322 6.382 2.44444 7.05545 2.44444V4.88889H5.83322V3.66667ZM5.83322 7.33333H7.05545V9.77778H5.83322V7.33333ZM5.83322 12.2222H7.05545V14.6667H5.83322V12.2222ZM5.83322 18.3333V17.1111H7.05545V19.5556C6.382 19.5556 5.83322 19.0068 5.83322 18.3333ZM21.7221 18.3333C21.7221 19.0068 21.1733 19.5556 20.4999 19.5556H8.27767V2.44444H20.4999C21.1733 2.44444 21.7221 2.99322 21.7221 3.66667V18.3333Z" fill="#1E4E9D"/>
<path d="M14.3888 11.6112C15.7388 11.6112 16.8332 10.5168 16.8332 9.16673C16.8332 7.8167 15.7388 6.72229 14.3888 6.72229C13.0388 6.72229 11.9443 7.8167 11.9443 9.16673C11.9443 10.5168 13.0388 11.6112 14.3888 11.6112Z" fill="#1E4E9D"/>
<path d="M14.3886 12.6573C12.4795 12.6573 11.333 13.5312 11.333 14.4039C11.333 14.8402 12.4795 15.2778 14.3886 15.2778C16.1803 15.2778 17.4441 14.8415 17.4441 14.4039C17.4441 13.5312 16.2463 12.6573 14.3886 12.6573Z" fill="#1E4E9D"/>
</svg>
