<svg width="25" height="22" viewBox="0 0 25 22" fill="none" xmlns="http://www.w3.org/2000/svg">
<path d="M20.4989 0H7.05447C5.03291 0 3.3878 1.64511 3.3878 3.66667V4.88889H2.16558C1.84143 4.88889 1.53055 5.01766 1.30134 5.24687C1.07213 5.47608 0.943359 5.78696 0.943359 6.11111C0.943359 6.43526 1.07213 6.74614 1.30134 6.97535C1.53055 7.20456 1.84143 7.33333 2.16558 7.33333H3.3878V9.77778H2.16558C1.84143 9.77778 1.53055 9.90655 1.30134 10.1358C1.07213 10.365 0.943359 10.6758 0.943359 11C0.943359 11.3242 1.07213 11.635 1.30134 11.8642C1.53055 12.0935 1.84143 12.2222 2.16558 12.2222H3.3878V14.6667H2.16558C1.84143 14.6667 1.53055 14.7954 1.30134 15.0246C1.07213 15.2539 0.943359 15.5647 0.943359 15.8889C0.943359 16.213 1.07213 16.5239 1.30134 16.7531C1.53055 16.9823 1.84143 17.1111 2.16558 17.1111H3.3878V18.3333C3.3878 20.3549 5.03291 22 7.05447 22H20.4989C22.5205 22 24.1656 20.3549 24.1656 18.3333V3.66667C24.1656 1.64511 22.5205 0 20.4989 0ZM5.83225 3.66667C5.83225 2.99322 6.38103 2.44444 7.05447 2.44444V4.88889H5.83225V3.66667ZM5.83225 7.33333H7.05447V9.77778H5.83225V7.33333ZM5.83225 12.2222H7.05447V14.6667H5.83225V12.2222ZM5.83225 18.3333V17.1111H7.05447V19.5556C6.38103 19.5556 5.83225 19.0068 5.83225 18.3333ZM21.7211 18.3333C21.7211 19.0068 21.1724 19.5556 20.4989 19.5556H8.27669V2.44444H20.4989C21.1724 2.44444 21.7211 2.99322 21.7211 3.66667V18.3333Z" fill="white"/>
<path d="M14.3878 11.6111C15.7378 11.6111 16.8322 10.5167 16.8322 9.16667C16.8322 7.81664 15.7378 6.72223 14.3878 6.72223C13.0378 6.72223 11.9434 7.81664 11.9434 9.16667C11.9434 10.5167 13.0378 11.6111 14.3878 11.6111Z" fill="white"/>
<path d="M14.3875 12.6573C12.4784 12.6573 11.332 13.5312 11.332 14.4039C11.332 14.8402 12.4784 15.2778 14.3875 15.2778C16.1793 15.2778 17.4431 14.8414 17.4431 14.4039C17.4431 13.5312 16.2453 12.6573 14.3875 12.6573Z" fill="white"/>
</svg>
