<svg width="26" height="18" viewBox="0 0 26 18" fill="none" xmlns="http://www.w3.org/2000/svg">
<path d="M2.78571 1.8H23.2143V0H2.78571V1.8ZM24.1429 2.7V15.3H26V2.7H24.1429ZM23.2143 16.2H2.78571V18H23.2143V16.2ZM1.85714 15.3V2.7H0V15.3H1.85714ZM2.78571 16.2C2.53944 16.2 2.30326 16.1052 2.12912 15.9364C1.95497 15.7676 1.85714 15.5387 1.85714 15.3H0C0 16.0161 0.293494 16.7028 0.815917 17.2092C1.33834 17.7155 2.0469 18 2.78571 18V16.2ZM24.1429 15.3C24.1429 15.5387 24.045 15.7676 23.8709 15.9364C23.6967 16.1052 23.4606 16.2 23.2143 16.2V18C23.9531 18 24.6617 17.7155 25.1841 17.2092C25.7065 16.7028 26 16.0161 26 15.3H24.1429ZM23.2143 1.8C23.4606 1.8 23.6967 1.89482 23.8709 2.0636C24.045 2.23239 24.1429 2.46131 24.1429 2.7H26C26 1.98392 25.7065 1.29716 25.1841 0.790812C24.6617 0.284464 23.9531 0 23.2143 0V1.8ZM2.78571 0C2.0469 0 1.33834 0.284464 0.815917 0.790812C0.293494 1.29716 0 1.98392 0 2.7H1.85714C1.85714 2.46131 1.95497 2.23239 2.12912 2.0636C2.30326 1.89482 2.53944 1.8 2.78571 1.8V0ZM0.399286 3.4398L11.414 10.8306L12.4716 9.351L1.45693 1.9602L0.399286 3.4398ZM14.586 10.8306L25.5998 3.4398L24.5431 1.9602L13.5284 9.351L14.586 10.8306ZM11.414 10.8306C11.8799 11.1434 12.4332 11.3109 13 11.3109C13.5668 11.3109 14.1201 11.1434 14.586 10.8306L13.5284 9.351C13.3731 9.45512 13.1888 9.5109 13 9.5109C12.8112 9.5109 12.6269 9.45512 12.4716 9.351L11.414 10.8306Z" fill="#1E4E9D"/>
</svg>
