<svg width="22" height="22" viewBox="0 0 22 22" fill="none" xmlns="http://www.w3.org/2000/svg">
<path d="M15.8421 8.57186L11.4421 5.96855C11.3291 5.90159 11.2001 5.86633 11.0687 5.86646C10.9374 5.86658 10.8085 5.90211 10.6956 5.96928L6.29561 8.5726C6.18591 8.6373 6.09499 8.72951 6.03184 8.84012C5.96869 8.95072 5.9355 9.0759 5.93555 9.20326V14.2632C5.93555 14.5228 6.07268 14.7626 6.29561 14.8939L10.6956 17.4972C10.8083 17.5649 10.9373 17.6006 11.0688 17.6006C11.2003 17.6006 11.3294 17.5649 11.4421 17.4972L15.8421 14.8939C15.9518 14.8292 16.0427 14.737 16.1058 14.6264C16.169 14.5158 16.2022 14.3906 16.2021 14.2632V9.20326C16.2022 9.0758 16.169 8.95053 16.1058 8.83981C16.0427 8.72909 15.9518 8.63674 15.8421 8.57186ZM14.7355 13.8452L11.0688 16.0144L7.4022 13.8452V9.62126L11.0688 7.45207L14.7355 9.62126V13.8452Z" fill="white"/>
<path d="M3.73409 14.0682V7.38461L8.28073 4.6977L7.53493 3.43491L2.6275 6.33522C2.51779 6.4001 2.42688 6.49245 2.36374 6.60317C2.3006 6.71389 2.26741 6.83916 2.26744 6.96662V14.0682C1.83974 14.2189 1.46917 14.4983 1.20658 14.8681C0.943983 15.2378 0.802235 15.6797 0.800781 16.1332C0.800781 17.3461 1.78784 18.3332 3.00076 18.3332C4.21369 18.3332 5.20075 17.3461 5.20075 16.1332C5.1993 15.6797 5.05755 15.2378 4.79495 14.8681C4.53236 14.4983 4.16179 14.2189 3.73409 14.0682ZM3.00076 16.8665C2.81195 16.8581 2.63366 16.7771 2.50304 16.6405C2.37241 16.5039 2.29951 16.3222 2.29951 16.1332C2.29951 15.9442 2.37241 15.7625 2.50304 15.6259C2.63366 15.4893 2.81195 15.4083 3.00076 15.3999C3.18958 15.4083 3.36786 15.4893 3.49849 15.6259C3.62912 15.7625 3.70202 15.9442 3.70202 16.1332C3.70202 16.3222 3.62912 16.5039 3.49849 16.6405C3.36786 16.7771 3.18958 16.8581 3.00076 16.8665ZM19.134 13.9332C17.9211 13.9332 16.934 14.9203 16.934 16.1332C16.934 16.3921 16.9868 16.637 17.0697 16.868L11.0674 20.4144L6.37114 17.6395L5.62535 18.9023L10.6941 21.8972C10.807 21.9643 10.9359 21.9999 11.0673 22C11.1986 22.0001 11.3276 21.9649 11.4406 21.8979L18.0113 18.0149C18.3412 18.2122 18.7226 18.3332 19.134 18.3332C20.3469 18.3332 21.334 17.3461 21.334 16.1332C21.334 14.9203 20.3469 13.9332 19.134 13.9332ZM19.134 16.8665C18.9452 16.8581 18.7669 16.7771 18.6362 16.6405C18.5056 16.5039 18.4327 16.3222 18.4327 16.1332C18.4327 15.9442 18.5056 15.7625 18.6362 15.6259C18.7669 15.4893 18.9452 15.4083 19.134 15.3999C19.3228 15.4083 19.5011 15.4893 19.6317 15.6259C19.7623 15.7625 19.8352 15.9442 19.8352 16.1332C19.8352 16.3222 19.7623 16.5039 19.6317 16.6405C19.5011 16.7771 19.3228 16.8581 19.134 16.8665ZM11.0674 4.39997C11.6034 4.39997 12.0882 4.19977 12.4702 3.88077L18.4007 7.38535V12.4666H19.8673V6.96662C19.8673 6.83916 19.8341 6.71389 19.771 6.60317C19.7079 6.49245 19.617 6.4001 19.5072 6.33522L13.2248 2.62311C13.2512 2.48598 13.2674 2.34518 13.2674 2.19998C13.2674 0.987059 12.2803 0 11.0674 0C9.85445 0 8.86739 0.987059 8.86739 2.19998C8.86739 3.41291 9.85445 4.39997 11.0674 4.39997ZM11.0674 1.46666C11.2126 1.46651 11.3546 1.50946 11.4755 1.59006C11.5963 1.67067 11.6905 1.7853 11.7461 1.91947C11.8018 2.05363 11.8164 2.20128 11.7881 2.34375C11.7598 2.48621 11.6899 2.61707 11.5872 2.71978C11.4845 2.82248 11.3536 2.89241 11.2111 2.92071C11.0687 2.94901 10.921 2.93441 10.7869 2.87876C10.6527 2.82311 10.5381 2.72891 10.4574 2.60808C10.3768 2.48725 10.3339 2.34523 10.334 2.19998C10.334 1.79519 10.6633 1.46666 11.0674 1.46666Z" fill="white"/>
</svg>
