<svg width="21" height="21" viewBox="0 0 21 21" fill="none" xmlns="http://www.w3.org/2000/svg">
<path d="M15.1428 21C6.79321 21 0 14.2068 0 5.85723C0.00315722 4.42504 0.526289 3.04272 1.47213 1.96729C2.41798 0.891848 3.72217 0.196471 5.14223 0.010442C5.50423 -0.0296959 5.86961 0.0465206 6.18538 0.228039C6.50114 0.409557 6.75088 0.686939 6.89837 1.01996L9.01205 5.95188C9.12169 6.20787 9.16565 6.4872 9.13994 6.7645C9.11423 7.0418 9.01966 7.30829 8.86483 7.53976L7.1192 10.2108C7.90966 11.815 9.21211 13.11 10.8208 13.8913L13.4602 12.1352C13.6915 11.9793 13.9586 11.8849 14.2365 11.861C14.5143 11.8371 14.7937 11.8844 15.0481 11.9985L19.98 14.1016C20.3131 14.2491 20.5904 14.4989 20.772 14.8146C20.9535 15.1304 21.0297 15.4958 20.9896 15.8578C20.8035 17.2778 20.1082 18.582 19.0327 19.5279C17.9573 20.4737 16.575 20.9968 15.1428 21ZM5.35255 1.68246C4.33772 1.81291 3.40524 2.30879 2.72969 3.07725C2.05414 3.84571 1.68185 4.83405 1.68253 5.85723C1.68531 9.42626 3.10434 12.8483 5.62802 15.372C8.1517 17.8957 11.5737 19.3147 15.1428 19.3175C16.1659 19.3181 17.1543 18.9459 17.9227 18.2703C18.6912 17.5948 19.1871 16.6623 19.3175 15.6475L14.3856 13.5443L11.7567 15.3004C11.5148 15.4603 11.2357 15.555 10.9464 15.5753C10.6571 15.5956 10.3675 15.5407 10.1057 15.4161C8.14654 14.4684 6.56179 12.8911 5.60493 10.9364C5.47877 10.6754 5.42216 10.3863 5.44058 10.0971C5.459 9.80781 5.55184 9.52822 5.71008 9.28539L7.46623 6.61437L5.35255 1.68246Z" fill="#1E4E9D"/>
</svg>
